<svg width="44" height="44" viewBox="0 0 44 44" fill="none" xmlns="http://www.w3.org/2000/svg">
<circle cx="22" cy="22" r="22" fill="#172852"/>
<path d="M17.721 9.83181C20.2972 8.86821 23.1968 8.86601 25.8214 9.65801C29.238 10.7184 32.1222 13.2968 33.6292 16.533C34.045 17.4548 34.4432 18.4162 34.4828 19.4414C32.5622 18.3282 30.4568 17.6066 28.347 16.9488C24.9722 15.7322 21.439 14.8874 18.2446 13.2154C17.501 12.771 16.5528 12.3156 16.3504 11.3894C16.269 10.5886 17.116 10.142 17.721 9.83181Z" fill="#FFD83D"/>
<path d="M9.94393 17.6198C10.6897 15.5958 11.9129 13.717 13.5739 12.3244C13.9963 15.7982 15.4747 19.1554 17.9167 21.681C20.8449 24.7236 25.0161 26.5914 29.2599 26.521C30.9451 26.5738 32.5929 26.1844 34.2363 25.8698C32.6193 31.713 26.2151 35.5916 20.2817 34.6588C16.7001 34.2012 13.3935 32.0804 11.3981 29.0862C9.14753 25.7774 8.57993 21.384 9.94393 17.6198Z" fill="#FFD83D"/>
<path d="M28.347 16.9488C30.4568 17.6066 32.5622 18.3282 34.4828 19.4414L34.6126 19.5096C34.7908 20.8494 34.9206 22.2156 34.683 23.5576C33.7172 23.1484 32.934 22.429 32.1156 21.7932C30.5404 20.482 28.9322 18.9816 28.347 16.9488Z" fill="#FF6F03"/>
</svg>
